<?xml version="1.0" encoding="UTF-8" standalone="no"?>
<!-- Created with Inkscape (http://www.inkscape.org/) -->

<svg
   xmlns:dc="http://purl.org/dc/elements/1.1/"
   xmlns:cc="http://creativecommons.org/ns#"
   xmlns:rdf="http://www.w3.org/1999/02/22-rdf-syntax-ns#"
   xmlns:svg="http://www.w3.org/2000/svg"
   xmlns="http://www.w3.org/2000/svg"
   xmlns:sodipodi="http://sodipodi.sourceforge.net/DTD/sodipodi-0.dtd"
   xmlns:inkscape="http://www.inkscape.org/namespaces/inkscape"
   width="210mm"
   height="227mm"
   viewBox="0 0 210 227"
   version="1.1"
   id="svg8"
   inkscape:version="0.92.4 (unknown)"
   sodipodi:docname="cat-3.svg">
  <defs
     id="defs2">
    <inkscape:path-effect
       effect="bspline"
       id="path-effect1072"
       is_visible="true"
       weight="33.333333"
       steps="2"
       helper_size="0"
       apply_no_weight="true"
       apply_with_weight="true"
       only_selected="false" />
    <inkscape:path-effect
       effect="bspline"
       id="path-effect972"
       is_visible="true"
       weight="33.333333"
       steps="2"
       helper_size="0"
       apply_no_weight="true"
       apply_with_weight="true"
       only_selected="false" />
    <inkscape:path-effect
       effect="bspline"
       id="path-effect972-6"
       is_visible="true"
       weight="33.333333"
       steps="2"
       helper_size="0"
       apply_no_weight="true"
       apply_with_weight="true"
       only_selected="false" />
  </defs>
  <sodipodi:namedview
     id="base"
     pagecolor="#ffffff"
     bordercolor="#666666"
     borderopacity="1.0"
     inkscape:pageopacity="0.0"
     inkscape:pageshadow="2"
     inkscape:zoom="0.7"
     inkscape:cx="248.74162"
     inkscape:cy="491.70448"
     inkscape:document-units="mm"
     inkscape:current-layer="layer1"
     showgrid="false"
     inkscape:window-width="1920"
     inkscape:window-height="1016"
     inkscape:window-x="0"
     inkscape:window-y="27"
     inkscape:window-maximized="1" />
  <metadata
     id="metadata5">
    <rdf:RDF>
      <cc:Work
         rdf:about="">
        <dc:format>image/svg+xml</dc:format>
        <dc:type
           rdf:resource="http://purl.org/dc/dcmitype/StillImage" />
        <dc:title></dc:title>
      </cc:Work>
    </rdf:RDF>
  </metadata>
  <g
     inkscape:label="Layer 1"
     inkscape:groupmode="layer"
     id="layer1"
     transform="translate(0,-70)">
    <ellipse
       style="fill:#f9f9f9;fill-opacity:1;stroke:none;stroke-width:29.05063438;stroke-miterlimit:4;stroke-dasharray:none;stroke-opacity:1"
       id="path817"
       cx="49.861225"
       cy="114.05688"
       rx="10.609991"
       ry="9.4328756" />
    <ellipse
       style="fill:#ffcc00;fill-opacity:1;stroke:none;stroke-width:0.30694014;stroke-miterlimit:4;stroke-dasharray:none;stroke-opacity:1"
       id="path992"
       cx="36.738346"
       cy="86.149246"
       rx="8.6555185"
       ry="8.6997499" />
    <ellipse
       style="fill:#ffe680;fill-opacity:1;stroke:none;stroke-width:0.19866778;stroke-miterlimit:4;stroke-dasharray:none;stroke-opacity:1"
       id="path992-9"
       cx="36.73835"
       cy="86.601173"
       rx="5.5842056"
       ry="5.6491885" />
    <ellipse
       style="fill:#ffcc00;fill-opacity:1;stroke:none;stroke-width:0.30694014;stroke-miterlimit:4;stroke-dasharray:none;stroke-opacity:1"
       id="path992-4"
       cx="108.49541"
       cy="85.464996"
       rx="8.6555185"
       ry="8.6997499" />
    <ellipse
       style="fill:#ffe680;fill-opacity:1;stroke:none;stroke-width:0.19866778;stroke-miterlimit:4;stroke-dasharray:none;stroke-opacity:1"
       id="path992-9-8"
       cx="108.49541"
       cy="85.916924"
       rx="5.5842052"
       ry="5.6491885" />
    <ellipse
       style="fill:#ffcc00;fill-opacity:1;stroke:none;stroke-width:22.83988953;stroke-miterlimit:4;stroke-dasharray:none;stroke-opacity:1"
       id="path815"
       cx="74.034172"
       cy="127.68775"
       rx="53.438122"
       ry="49.766178" />
    <ellipse
       style="fill:#f9f9f9;fill-opacity:1;stroke:none;stroke-width:29.05063438;stroke-miterlimit:4;stroke-dasharray:none;stroke-opacity:1"
       id="path817-7-1"
       cx="49.488953"
       cy="113.617"
       rx="10.609991"
       ry="9.4328756" />
    <ellipse
       style="fill:#a02c2c;fill-opacity:1;stroke:none;stroke-width:18.35569;stroke-miterlimit:4;stroke-dasharray:none;stroke-opacity:1"
       id="path817-1"
       cx="49.675095"
       cy="114.10574"
       rx="6.7010469"
       ry="5.9627504" />
    <ellipse
       style="fill:#501616;fill-opacity:1;stroke:none;stroke-width:10.07535839;stroke-miterlimit:4;stroke-dasharray:none;stroke-opacity:1"
       id="path817-1-5"
       cx="49.72163"
       cy="113.76363"
       rx="3.6762688"
       ry="3.2746255" />
    <ellipse
       style="fill:#ffffff;fill-opacity:1;stroke:none;stroke-width:5.40711927;stroke-miterlimit:4;stroke-dasharray:none;stroke-opacity:1"
       id="path817-1-5-9"
       cx="47.846684"
       cy="111.27993"
       rx="1.7677643"
       ry="1.9613515" />
    <ellipse
       style="fill:#ffffff;fill-opacity:1;stroke:none;stroke-width:3.40031815;stroke-miterlimit:4;stroke-dasharray:none;stroke-opacity:1"
       id="path817-1-5-9-7"
       cx="52.453411"
       cy="115.80727"
       rx="1.1754699"
       ry="1.1664751" />
    <ellipse
       style="fill:#f9f9f9;fill-opacity:1;stroke:none;stroke-width:29.05063438;stroke-miterlimit:4;stroke-dasharray:none;stroke-opacity:1"
       id="path817-7"
       cx="94.907166"
       cy="113.226"
       rx="10.609991"
       ry="9.4328756" />
    <ellipse
       style="fill:#a02c2c;fill-opacity:1;stroke:none;stroke-width:18.35569;stroke-miterlimit:4;stroke-dasharray:none;stroke-opacity:1"
       id="path817-1-6"
       cx="94.721031"
       cy="113.27486"
       rx="6.7010469"
       ry="5.9627504" />
    <ellipse
       style="fill:#501616;fill-opacity:1;stroke:none;stroke-width:10.07535839;stroke-miterlimit:4;stroke-dasharray:none;stroke-opacity:1"
       id="path817-1-5-7"
       cx="94.76757"
       cy="112.93274"
       rx="3.6762688"
       ry="3.2746255" />
    <ellipse
       style="fill:#ffffff;fill-opacity:1;stroke:none;stroke-width:5.40711975;stroke-miterlimit:4;stroke-dasharray:none;stroke-opacity:1"
       id="path817-1-5-9-3"
       cx="92.892616"
       cy="110.44905"
       rx="1.7677643"
       ry="1.9613515" />
    <ellipse
       style="fill:#ffffff;fill-opacity:1;stroke:none;stroke-width:3.40031862;stroke-miterlimit:4;stroke-dasharray:none;stroke-opacity:1"
       id="path817-1-5-9-7-6"
       cx="97.499344"
       cy="114.97639"
       rx="1.1754699"
       ry="1.1664751" />
    <ellipse
       style="fill:#ffe680;fill-opacity:1;stroke:none;stroke-width:25.83666992;stroke-miterlimit:4;stroke-dasharray:none;stroke-opacity:1"
       id="path917"
       cx="74.152527"
       cy="140.4005"
       rx="14.425866"
       ry="13.685" />
    <path
       sodipodi:type="star"
       style="fill:#2b0000;fill-opacity:1;stroke:none;stroke-width:16;stroke-miterlimit:4;stroke-dasharray:none;stroke-opacity:1"
       id="path915"
       sodipodi:sides="3"
       sodipodi:cx="59.734737"
       sodipodi:cy="61.802818"
       sodipodi:r1="9.2207985"
       sodipodi:r2="4.6103992"
       sodipodi:arg1="1.5707963"
       sodipodi:arg2="2.6179939"
       inkscape:flatsided="false"
       inkscape:rounded="0"
       inkscape:randomized="0"
       d="m 59.734738,71.023617 -3.992724,-6.915599 -3.992722,-6.915599 7.985445,0 7.985446,0 -3.992723,6.915599 z"
       inkscape:transform-center-y="1.4825404"
       transform="matrix(0.79849923,0,0,0.64312943,25.709825,95.11412)" />
    <path
       style="fill:#ffe680;fill-opacity:1;stroke:none;stroke-width:22.83988953;stroke-miterlimit:4;stroke-dasharray:none;stroke-opacity:1"
       d="m 63.635605,141.28024 c -0.05499,1.25744 0.02252,2.16073 0.46535,3.3235 0.03645,0.0957 0.04259,0.2049 0.09307,0.29326 0.04514,0.079 0.131323,0.12353 0.186142,0.19549 0.13975,0.18348 0.232526,0.40303 0.372278,0.5865 0.159972,0.21003 0.377219,0.39619 0.558422,0.5865 0.209887,0.22045 0.560643,0.7343 0.83763,0.87975 0.196143,0.10301 0.441978,0.18323 0.651491,0.29326 0.148967,0.0782 0.03718,0.11727 0.186142,0.19549 0.310126,0.16287 1.215017,0.32405 1.582188,0.1955 0.04162,-0.0145 0.05145,-0.0832 0.09307,-0.0977 0.162622,-0.0569 0.302729,-0.0408 0.465351,-0.0977 0.216988,-0.076 0.629394,-0.44069 0.837633,-0.5865 0.316382,-0.22152 0.04991,-0.013 0.37228,-0.0978 0.269925,-0.0709 0.108911,-0.0763 0.279208,-0.1955 0.206267,-0.14442 0.450398,-0.18764 0.651491,-0.29324 0.387335,-0.20341 -0.0995,0.007 0.09307,-0.19551 0.02192,-0.023 0.06531,0.0145 0.09307,0 0.387334,-0.2034 -0.0995,0.007 0.09306,-0.1955 0.02192,-0.023 0.07113,0.023 0.09307,0 0.02192,-0.023 -0.02192,-0.0747 0,-0.0977 0.04654,-0.0489 0.139607,-0.0489 0.186142,-0.0977 0.02193,-0.023 -0.02192,-0.0747 0,-0.0978 0.02193,-0.023 0.07114,0.023 0.09307,0 0.02145,-0.0225 0.061,-0.48542 0.09307,-0.5865 0.06515,-0.20527 0.214058,-0.38122 0.279209,-0.5865 0.05988,-0.18868 -0.0738,-1.38874 0,-1.46625 0.02192,-0.023 0.07113,0.023 0.09307,0 0.04644,-0.0488 0,-0.41221 0,-0.48875 0,-0.22924 -0.02192,0.0461 0.09307,-0.1955 0.03723,-0.0782 -0.03723,-0.21505 0,-0.29325 0.127687,-0.26822 0.02701,-0.18292 0.09307,-0.391 0.224715,-0.70804 -0.02683,0.15412 0.18614,-0.29325 0.01379,-0.0291 -0.03103,-0.0978 0,-0.0978 0.03103,0 0.03103,0.0978 0,0.0978 -0.201044,0 0.122994,-0.12918 0.186142,-0.1955 0.103479,-0.10867 0.420378,-0.41626 0.558422,-0.48875 0.02775,-0.0145 0.07113,0.023 0.09307,0 0.02193,-0.023 -0.02192,-0.0747 0,-0.0978 0.02193,-0.023 0.07114,0.023 0.09307,0 0.02193,-0.023 -0.02192,-0.0747 0,-0.0977 0.02193,-0.023 0.07114,0.023 0.09307,0 0.02192,-0.023 0.02775,-0.11232 0,-0.0977 -0.138733,0.0729 -0.248189,0.1955 -0.37228,0.29325"
       id="path931"
       inkscape:connector-curvature="0" />
    <path
       style="fill:#784421;fill-opacity:1;stroke:#784421;stroke-width:0.2;stroke-miterlimit:4;stroke-dasharray:none;stroke-opacity:1"
       d="m 53.284531,66.924134 c 0.01351,0.02895 0.04107,0.08801 0.07856,0.151322 0.03749,0.06332 0.08474,0.130249 0.116215,0.17548 0.03148,0.04523 0.04723,0.06886 0.06531,0.08898 0.01808,0.02012 0.03777,0.03587 0.05906,0.06103 0.02129,0.02516 0.04491,0.06059 0.09043,0.110152 0.04553,0.04956 0.11246,0.112559 0.149817,0.147949 0.03736,0.03539 0.04524,0.04327 0.05588,0.04944 0.01064,0.0062 0.02245,0.0101 0.03968,0.01989 0.01723,0.0098 0.04085,0.02553 0.07462,0.04332 0.03376,0.01779 0.07707,0.03748 0.140424,0.05712 0.06335,0.01964 0.146032,0.03933 0.289973,0.0589 0.14394,0.01957 0.348678,0.03926 0.510362,0.04294 0.161684,0.0037 0.279801,-0.0081 0.419617,-0.02593 0.139817,-0.01779 0.301244,-0.04142 0.399776,-0.05945 0.09853,-0.01803 0.133974,-0.02984 0.163418,-0.03744 0.02944,-0.0076 0.05306,-0.01153 0.06337,-0.01324 0.01031,-0.0017 0.03394,-0.02535 0.0392,-0.02535 0.0053,0 0.01313,0 0.01575,0 0.0026,0 0.02625,-0.02363 0.03571,-0.02836 0.0095,-0.0047 0.02521,-0.01261 0.04669,-0.02878 0.02149,-0.01617 0.04905,-0.0398 0.08261,-0.06523 0.03356,-0.02544 0.07293,-0.05299 0.104243,-0.07885 0.03131,-0.02586 0.05494,-0.04948 0.08071,-0.07089 0.02577,-0.0214 0.05333,-0.04109 0.08071,-0.06496 0.02738,-0.02387 0.05494,-0.05144 0.08268,-0.07481 0.02774,-0.02337 0.0553,-0.04306 0.09258,-0.07475 0.03728,-0.03169 0.08452,-0.07499 0.125954,-0.110308 0.04143,-0.03531 0.07686,-0.06287 0.110273,-0.09052 0.03341,-0.02765 0.0649,-0.05521 0.07925,-0.06776 0.01435,-0.01255 0.0616,-0.0598 0.0616,-0.0631 0,-0.0033 0,-0.0072 0.0033,-0.0079 0.0033,-6.35e-4 0.0072,-6.35e-4 0.0079,-0.0039 6.35e-4,-0.0033 6.35e-4,-0.0072 6.35e-4,-0.0079 0,-6.35e-4 0.0118,-0.01243 -0.0029,0.0077 -0.01466,0.02016 -0.04616,0.06347 -0.06299,0.08662 -0.01684,0.02315 -0.0759,0.08221 -0.07904,0.08849 -0.0031,0.0063 -0.01102,0.02204 -0.02848,0.04968 -0.01746,0.02764 -0.04502,0.06701 -0.07081,0.108288 -0.02579,0.04127 -0.04941,0.08458 -0.06366,0.114134 -0.01425,0.02955 -0.01818,0.04529 -0.02346,0.05911 -0.0053,0.01382 -0.01315,0.02562 -0.02534,0.05114 -0.01219,0.02552 -0.02794,0.0649 -0.04177,0.100338 -0.01382,0.03544 -0.02563,0.06693 -0.03744,0.09844 -0.01181,0.0315 -0.02362,0.06299 -0.04463,0.09666 -0.02101,0.03366 -0.05251,0.06909 -0.0759,0.09301 -0.02339,0.02392 -0.03913,0.03572 -0.06104,0.05708 -0.02191,0.02136 -0.04947,0.05286 -0.07277,0.07499 -0.0233,0.02213 -0.04298,0.03393 -0.08241,0.06133 -0.03943,0.0274 -0.09849,0.07071 -0.157489,0.110241 -0.05899,0.03953 -0.118051,0.07497 -0.149138,0.09362 -0.03109,0.01865 -0.07834,0.0659 -0.08857,0.07102 -0.01023,0.0051 -0.03384,0.01692 -0.07521,0.04041 -0.04137,0.02348 -0.100431,0.05892 -0.139759,0.08087 -0.03933,0.02195 -0.05902,0.02983 -0.100393,0.05124 -0.04137,0.02141 -0.104361,0.05685 -0.169576,0.07545 -0.06521,0.0186 -0.132145,0.0186 -0.177156,0.02201 -0.04501,0.0034 -0.06864,0.01129 -0.104239,0.0176 -0.0356,0.0063 -0.08285,0.01025 -0.11223,0.01378 -0.02938,0.0035 -0.04115,0.0074 -0.0552,0.0099 -0.01405,0.0025 -0.0298,0.0025 -0.04724,0.0058 -0.01744,0.0033 -0.03714,0.01118 -0.05513,0.01576 -0.01799,0.0046 -0.03374,0.0046 -0.04926,0.0062 -0.01552,0.0016 -0.03126,0.0055 -0.07875,0.0079 -0.04749,0.0024 -0.126228,0.0024 -0.173865,6.23e-4 -0.04764,-0.0017 -0.06339,-0.0057 -0.07874,-0.0079 -0.01536,-0.0022 -0.03111,-0.0022 -0.04947,-0.0059 -0.01836,-0.0037 -0.03804,-0.01154 -0.06124,-0.01756 -0.0232,-0.006 -0.05076,-0.01 -0.06762,-0.01405 -0.01686,-0.0041 -0.02078,-0.008 -0.03349,-0.01177 -0.01271,-0.0038 -0.03633,-0.0077 -0.07644,-0.02734 -0.04011,-0.01965 -0.09523,-0.05508 -0.14835,-0.08854 -0.05312,-0.03345 -0.104297,-0.06495 -0.155381,-0.09446 -0.05108,-0.02951 -0.102265,-0.05706 -0.145966,-0.08677 -0.0437,-0.02971 -0.07914,-0.06121 -0.102549,-0.08077 -0.02341,-0.01957 -0.0352,-0.02742 -0.04949,-0.04368 -0.01429,-0.01626 -0.03004,-0.03988 -0.04111,-0.05309 -0.01107,-0.01321 -0.01897,-0.01715 -0.04131,-0.04322 -0.02235,-0.02607 -0.05777,-0.07331 -0.08066,-0.125106 -0.02288,-0.0518 -0.03467,-0.114664 -0.04117,-0.149342 -0.0065,-0.03468 -0.0065,-0.03468 -0.0065,-0.09112 0,-0.05644 0,-0.166689 0,-0.249371 0,-0.08268 0,-0.137803 -0.0042,-0.172436 -0.0042,-0.03463 -0.01208,-0.05039 -0.01575,-0.07481 -0.0037,-0.02442 -0.0037,-0.05592 -0.0043,-0.07035 -6.5e-4,-0.01443 -0.0046,-0.01443 -0.0079,-0.02756 -0.0033,-0.01314 -0.0033,-0.03675 -0.0089,-0.05099 -0.0056,-0.01423 -0.0174,-0.02209 -0.02361,-0.03346 -0.0062,-0.01137 -0.0062,-0.02319 -0.0069,-0.02777 -6.5e-4,-0.0046 -0.0046,-0.0046 -0.0078,-0.0099 -0.0033,-0.0053 -0.0033,-0.01313 -0.004,-0.01574 -6.5e-4,-0.0026 -0.0046,-0.0026 -0.0078,-0.0098 -0.0033,-0.0072 -0.0033,-0.01905 -0.0075,-0.03202 -0.0042,-0.01297 -0.01208,-0.02873 -0.01102,-0.04555 0.0011,-0.01681 0.0089,-0.03256 0.01208,-0.03885 0.0031,-0.0063 0.0031,-0.0063 0.01665,0.02262 z"
       id="path970"
       inkscape:connector-curvature="0"
       inkscape:path-effect="#path-effect972"
       inkscape:original-d="m 53.27102,66.89518 c 0.03021,0.05642 0.05777,0.115472 0.08268,0.177178 0.04989,0.06429 0.09714,0.13122 0.14174,0.200798 0.01839,0.02098 0.03415,0.0446 0.04725,0.07087 0.02233,0.0131 0.04202,0.02885 0.05906,0.04725 0.02627,0.03279 0.04989,0.06822 0.07087,0.106307 0.06958,0.06035 0.136514,0.123346 0.2008,0.188986 0.01053,0.0052 0.01839,0.0131 0.02363,0.02363 0.01445,0.0013 0.02627,0.0052 0.03544,0.0118 0.02627,0.0131 0.04989,0.02885 0.07087,0.04725 0.04596,0.01704 0.08927,0.03673 0.129929,0.05906 0.08533,0.01704 0.168011,0.03673 0.248047,0.05906 0.207383,0.01704 0.412121,0.03673 0.614212,0.05906 0.120764,-0.01447 0.238882,-0.02627 0.354354,-0.03544 0.164073,-0.02627 0.325501,-0.04989 0.484282,-0.07087 0.03808,-0.01445 0.07352,-0.02627 0.106305,-0.03544 0.02627,-0.0066 0.04989,-0.01053 0.07087,-0.0118 l 0.02363,-0.02363 c 0.01053,-0.0026 0.01839,-0.0026 0.02363,0 l 0.02363,-0.02363 c 0.01839,-0.01053 0.03414,-0.01839 0.04725,-0.02363 0.0302,-0.02627 0.05777,-0.04989 0.08268,-0.07087 0.04202,-0.03021 0.08139,-0.05777 0.118118,-0.08268 0.02627,-0.02627 0.04989,-0.0499 0.07087,-0.07087 0.03021,-0.02233 0.05777,-0.04202 0.08268,-0.05906 0.03021,-0.0302 0.05777,-0.05777 0.08268,-0.08268 0.03021,-0.02233 0.05777,-0.04202 0.08268,-0.05906 0.04989,-0.04596 0.09714,-0.08926 0.141743,-0.129929 0.03808,-0.03021 0.07351,-0.05777 0.106304,-0.08268 0.03415,-0.03021 0.06564,-0.05777 0.0945,-0.08268 l 0.04725,-0.04725 c 0.0026,-0.0066 0.0026,-0.01053 0,-0.0118 0.0066,-0.0026 0.01053,-0.0026 0.0118,0 0.0026,-0.0066 0.0026,-0.01053 0,-0.0118 l 0.0118,-0.0118 c -0.02885,0.04066 -0.06035,0.08397 -0.09449,0.129929 l -0.05906,0.05906 c -0.0052,0.0131 -0.0131,0.02885 -0.02363,0.04725 -0.02492,0.03672 -0.05247,0.0761 -0.08268,0.118115 -0.02098,0.04066 -0.0446,0.08397 -0.07087,0.129932 -0.0013,0.0131 -0.0052,0.02885 -0.0118,0.04725 -0.0052,0.0092 -0.0131,0.02098 -0.02363,0.03543 -0.0131,0.03672 -0.02885,0.0761 -0.04725,0.118116 -0.0092,0.02885 -0.02098,0.06035 -0.03543,0.0945 -0.0092,0.02885 -0.02098,0.06035 -0.03543,0.09449 -0.02885,0.03279 -0.06035,0.06822 -0.0945,0.106307 -0.0131,0.0092 -0.02885,0.02098 -0.04725,0.03543 -0.02492,0.02885 -0.05248,0.06035 -0.08268,0.0945 -0.01704,0.0092 -0.03673,0.02098 -0.05906,0.03543 -0.05641,0.04066 -0.115472,0.08397 -0.177178,0.129929 -0.05641,0.03279 -0.115469,0.06822 -0.177176,0.106305 l -0.04725,0.04725 c -0.02098,0.0092 -0.0446,0.02098 -0.07087,0.03544 -0.05641,0.03279 -0.115473,0.06822 -0.177176,0.106307 -0.01704,0.0052 -0.03673,0.0131 -0.05906,0.02363 -0.06035,0.03279 -0.123346,0.06822 -0.188989,0.106307 -0.06429,-0.0026 -0.13122,-0.0026 -0.2008,0 -0.02098,0.0052 -0.0446,0.0131 -0.07087,0.02363 -0.0446,0.0013 -0.09185,0.0052 -0.14174,0.0118 -0.0092,0.0013 -0.02098,0.0052 -0.03544,0.0118 -0.0131,-0.0026 -0.02885,-0.0026 -0.04725,0 -0.01704,0.0052 -0.03673,0.0131 -0.05906,0.02363 -0.0131,-0.0026 -0.02885,-0.0026 -0.04725,0 -0.0131,0.0013 -0.02885,0.0052 -0.04725,0.0118 -0.0761,-0.0026 -0.154842,-0.0026 -0.236233,0 -0.0131,-0.0066 -0.02885,-0.01053 -0.04725,-0.0118 -0.0131,-0.0026 -0.02885,-0.0026 -0.04725,0 -0.01704,-0.01053 -0.03673,-0.01839 -0.05906,-0.02363 -0.02492,-0.0066 -0.05248,-0.01053 -0.08268,-0.0118 -0.0013,-0.0066 -0.0052,-0.01053 -0.0118,-0.0118 -0.02098,-0.0066 -0.0446,-0.01053 -0.07087,-0.0118 -0.05248,-0.03808 -0.107598,-0.07352 -0.165365,-0.106304 -0.04854,-0.03414 -0.09972,-0.06564 -0.153553,-0.0945 -0.04854,-0.03021 -0.09972,-0.05777 -0.153554,-0.08268 -0.03279,-0.03414 -0.06822,-0.06564 -0.106304,-0.09449 -0.0092,-0.01053 -0.02098,-0.01839 -0.03544,-0.02363 -0.0131,-0.02627 -0.02885,-0.04989 -0.04725,-0.07087 -0.0052,-0.0066 -0.0131,-0.01053 -0.02363,-0.0118 -0.03279,-0.0499 -0.06822,-0.09714 -0.106304,-0.141743 -0.01036,-0.05682 -0.02215,-0.119687 -0.03544,-0.18899 2.14e-4,-4.51e-4 2.14e-4,-4.51e-4 0,0 0.0026,-0.11289 0.0026,-0.223134 0,-0.330729 0.0026,-0.05777 0.0026,-0.11289 0,-0.165365 -0.0052,-0.01839 -0.0131,-0.03414 -0.02363,-0.04725 0.0026,-0.03414 0.0026,-0.06564 0,-0.09449 -0.0013,-0.0026 -0.0052,-0.0026 -0.0118,0 0.0026,-0.02627 0.0026,-0.04989 0,-0.07087 -0.0092,-0.01053 -0.02098,-0.01839 -0.03544,-0.02363 0.0026,-0.01445 0.0026,-0.02627 0,-0.03544 -0.0013,-0.0026 -0.0052,-0.0026 -0.0118,0 0.0026,-0.01053 0.0026,-0.01839 0,-0.02363 -0.0013,-0.0026 -0.0052,-0.0026 -0.0118,0 0.0026,-0.01445 0.0026,-0.02627 0,-0.03543 -0.0052,-0.01839 -0.0131,-0.03414 -0.02363,-0.04725 0.01053,-0.01839 0.01839,-0.03414 0.02363,-0.04725 z"
       transform="matrix(-1.7207286,0,0,0.85791352,165.09623,83.376354)"
       sodipodi:nodetypes="cccccccccccccccccccccccccccccccccccccccccccccccccccccccccccccccccccccccccccccccccccccccccccccccc" />
    <path
       style="fill:#784421;fill-opacity:1;stroke:#784421;stroke-width:0.2;stroke-miterlimit:4;stroke-dasharray:none;stroke-opacity:1"
       d="m 53.284531,66.924134 c 0.01351,0.02895 0.04107,0.08801 0.07856,0.151322 0.03749,0.06332 0.08474,0.130249 0.116215,0.17548 0.03148,0.04523 0.04723,0.06886 0.06531,0.08898 0.01808,0.02012 0.03777,0.03587 0.05906,0.06103 0.02129,0.02516 0.04491,0.06059 0.09043,0.110152 0.04553,0.04956 0.11246,0.112559 0.149817,0.147949 0.03736,0.03539 0.04524,0.04327 0.05588,0.04944 0.01064,0.0062 0.02245,0.0101 0.03968,0.01989 0.01723,0.0098 0.04085,0.02553 0.07462,0.04332 0.03376,0.01779 0.07707,0.03748 0.140424,0.05712 0.06335,0.01964 0.146032,0.03933 0.289973,0.0589 0.14394,0.01957 0.348678,0.03926 0.510362,0.04294 0.161684,0.0037 0.279801,-0.0081 0.419617,-0.02593 0.139817,-0.01779 0.301244,-0.04142 0.399776,-0.05945 0.09853,-0.01803 0.133974,-0.02984 0.163418,-0.03744 0.02944,-0.0076 0.05306,-0.01153 0.06337,-0.01324 0.01031,-0.0017 0.03394,-0.02535 0.0392,-0.02535 0.0053,0 0.01313,0 0.01575,0 0.0026,0 0.02625,-0.02363 0.03571,-0.02836 0.0095,-0.0047 0.02521,-0.01261 0.04669,-0.02878 0.02149,-0.01617 0.04905,-0.0398 0.08261,-0.06523 0.03356,-0.02544 0.07293,-0.05299 0.104243,-0.07885 0.03131,-0.02586 0.05494,-0.04948 0.08071,-0.07089 0.02577,-0.0214 0.05333,-0.04109 0.08071,-0.06496 0.02738,-0.02387 0.05494,-0.05144 0.08268,-0.07481 0.02774,-0.02337 0.0553,-0.04306 0.09258,-0.07475 0.03728,-0.03169 0.08452,-0.07499 0.125954,-0.110308 0.04143,-0.03531 0.07686,-0.06287 0.110273,-0.09052 0.03341,-0.02765 0.0649,-0.05521 0.07925,-0.06776 0.01435,-0.01255 0.0616,-0.0598 0.0616,-0.0631 0,-0.0033 0,-0.0072 0.0033,-0.0079 0.0033,-6.35e-4 0.0072,-6.35e-4 0.0079,-0.0039 6.35e-4,-0.0033 6.35e-4,-0.0072 6.35e-4,-0.0079 0,-6.35e-4 0.0118,-0.01243 -0.0029,0.0077 -0.01466,0.02016 -0.04616,0.06347 -0.06299,0.08662 -0.01684,0.02315 -0.0759,0.08221 -0.07904,0.08849 -0.0031,0.0063 -0.01102,0.02204 -0.02848,0.04968 -0.01746,0.02764 -0.04502,0.06701 -0.07081,0.108288 -0.02579,0.04127 -0.04941,0.08458 -0.06366,0.114134 -0.01425,0.02955 -0.01818,0.04529 -0.02346,0.05911 -0.0053,0.01382 -0.01315,0.02562 -0.02534,0.05114 -0.01219,0.02552 -0.02794,0.0649 -0.04177,0.100338 -0.01382,0.03544 -0.02563,0.06693 -0.03744,0.09844 -0.01181,0.0315 -0.02362,0.06299 -0.04463,0.09666 -0.02101,0.03366 -0.05251,0.06909 -0.0759,0.09301 -0.02339,0.02392 -0.03913,0.03572 -0.06104,0.05708 -0.02191,0.02136 -0.04947,0.05286 -0.07277,0.07499 -0.0233,0.02213 -0.04298,0.03393 -0.08241,0.06133 -0.03943,0.0274 -0.09849,0.07071 -0.157489,0.110241 -0.05899,0.03953 -0.118051,0.07497 -0.149138,0.09362 -0.03109,0.01865 -0.07834,0.0659 -0.08857,0.07102 -0.01023,0.0051 -0.03384,0.01692 -0.07521,0.04041 -0.04137,0.02348 -0.100431,0.05892 -0.139759,0.08087 -0.03933,0.02195 -0.05902,0.02983 -0.100393,0.05124 -0.04137,0.02141 -0.104361,0.05685 -0.169576,0.07545 -0.06521,0.0186 -0.132145,0.0186 -0.177156,0.02201 -0.04501,0.0034 -0.06864,0.01129 -0.104239,0.0176 -0.0356,0.0063 -0.08285,0.01025 -0.11223,0.01378 -0.02938,0.0035 -0.04115,0.0074 -0.0552,0.0099 -0.01405,0.0025 -0.0298,0.0025 -0.04724,0.0058 -0.01744,0.0033 -0.03714,0.01118 -0.05513,0.01576 -0.01799,0.0046 -0.03374,0.0046 -0.04926,0.0062 -0.01552,0.0016 -0.03126,0.0055 -0.07875,0.0079 -0.04749,0.0024 -0.126228,0.0024 -0.173865,6.23e-4 -0.04764,-0.0017 -0.06339,-0.0057 -0.07874,-0.0079 -0.01536,-0.0022 -0.03111,-0.0022 -0.04947,-0.0059 -0.01836,-0.0037 -0.03804,-0.01154 -0.06124,-0.01756 -0.0232,-0.006 -0.05076,-0.01 -0.06762,-0.01405 -0.01686,-0.0041 -0.02078,-0.008 -0.03349,-0.01177 -0.01271,-0.0038 -0.03633,-0.0077 -0.07644,-0.02734 -0.04011,-0.01965 -0.09523,-0.05508 -0.14835,-0.08854 -0.05312,-0.03345 -0.104297,-0.06495 -0.155381,-0.09446 -0.05108,-0.02951 -0.102265,-0.05706 -0.145966,-0.08677 -0.0437,-0.02971 -0.07914,-0.06121 -0.102549,-0.08077 -0.02341,-0.01957 -0.0352,-0.02742 -0.04949,-0.04368 -0.01429,-0.01626 -0.03004,-0.03988 -0.04111,-0.05309 -0.01107,-0.01321 -0.01897,-0.01715 -0.04131,-0.04322 -0.02235,-0.02607 -0.05777,-0.07331 -0.08066,-0.125106 -0.02288,-0.0518 -0.03467,-0.114664 -0.04117,-0.149342 -0.0065,-0.03468 -0.0065,-0.03468 -0.0065,-0.09112 0,-0.05644 0,-0.166689 0,-0.249371 0,-0.08268 0,-0.137803 -0.0042,-0.172436 -0.0042,-0.03463 -0.01208,-0.05039 -0.01575,-0.07481 -0.0037,-0.02442 -0.0037,-0.05592 -0.0043,-0.07035 -6.5e-4,-0.01443 -0.0046,-0.01443 -0.0079,-0.02756 -0.0033,-0.01314 -0.0033,-0.03675 -0.0089,-0.05099 -0.0056,-0.01423 -0.0174,-0.02209 -0.02361,-0.03346 -0.0062,-0.01137 -0.0062,-0.02319 -0.0069,-0.02777 -6.5e-4,-0.0046 -0.0046,-0.0046 -0.0078,-0.0099 -0.0033,-0.0053 -0.0033,-0.01313 -0.004,-0.01574 -6.5e-4,-0.0026 -0.0046,-0.0026 -0.0078,-0.0098 -0.0033,-0.0072 -0.0033,-0.01905 -0.0075,-0.03202 -0.0042,-0.01297 -0.01208,-0.02873 -0.01102,-0.04555 0.0011,-0.01681 0.0089,-0.03256 0.01208,-0.03885 0.0031,-0.0063 0.0031,-0.0063 0.01665,0.02262 z"
       id="path970-3"
       inkscape:connector-curvature="0"
       inkscape:path-effect="#path-effect972-6"
       inkscape:original-d="m 53.27102,66.89518 c 0.03021,0.05642 0.05777,0.115472 0.08268,0.177178 0.04989,0.06429 0.09714,0.13122 0.14174,0.200798 0.01839,0.02098 0.03415,0.0446 0.04725,0.07087 0.02233,0.0131 0.04202,0.02885 0.05906,0.04725 0.02627,0.03279 0.04989,0.06822 0.07087,0.106307 0.06958,0.06035 0.136514,0.123346 0.2008,0.188986 0.01053,0.0052 0.01839,0.0131 0.02363,0.02363 0.01445,0.0013 0.02627,0.0052 0.03544,0.0118 0.02627,0.0131 0.04989,0.02885 0.07087,0.04725 0.04596,0.01704 0.08927,0.03673 0.129929,0.05906 0.08533,0.01704 0.168011,0.03673 0.248047,0.05906 0.207383,0.01704 0.412121,0.03673 0.614212,0.05906 0.120764,-0.01447 0.238882,-0.02627 0.354354,-0.03544 0.164073,-0.02627 0.325501,-0.04989 0.484282,-0.07087 0.03808,-0.01445 0.07352,-0.02627 0.106305,-0.03544 0.02627,-0.0066 0.04989,-0.01053 0.07087,-0.0118 l 0.02363,-0.02363 c 0.01053,-0.0026 0.01839,-0.0026 0.02363,0 l 0.02363,-0.02363 c 0.01839,-0.01053 0.03414,-0.01839 0.04725,-0.02363 0.0302,-0.02627 0.05777,-0.04989 0.08268,-0.07087 0.04202,-0.03021 0.08139,-0.05777 0.118118,-0.08268 0.02627,-0.02627 0.04989,-0.0499 0.07087,-0.07087 0.03021,-0.02233 0.05777,-0.04202 0.08268,-0.05906 0.03021,-0.0302 0.05777,-0.05777 0.08268,-0.08268 0.03021,-0.02233 0.05777,-0.04202 0.08268,-0.05906 0.04989,-0.04596 0.09714,-0.08926 0.141743,-0.129929 0.03808,-0.03021 0.07351,-0.05777 0.106304,-0.08268 0.03415,-0.03021 0.06564,-0.05777 0.0945,-0.08268 l 0.04725,-0.04725 c 0.0026,-0.0066 0.0026,-0.01053 0,-0.0118 0.0066,-0.0026 0.01053,-0.0026 0.0118,0 0.0026,-0.0066 0.0026,-0.01053 0,-0.0118 l 0.0118,-0.0118 c -0.02885,0.04066 -0.06035,0.08397 -0.09449,0.129929 l -0.05906,0.05906 c -0.0052,0.0131 -0.0131,0.02885 -0.02363,0.04725 -0.02492,0.03672 -0.05247,0.0761 -0.08268,0.118115 -0.02098,0.04066 -0.0446,0.08397 -0.07087,0.129932 -0.0013,0.0131 -0.0052,0.02885 -0.0118,0.04725 -0.0052,0.0092 -0.0131,0.02098 -0.02363,0.03543 -0.0131,0.03672 -0.02885,0.0761 -0.04725,0.118116 -0.0092,0.02885 -0.02098,0.06035 -0.03543,0.0945 -0.0092,0.02885 -0.02098,0.06035 -0.03543,0.09449 -0.02885,0.03279 -0.06035,0.06822 -0.0945,0.106307 -0.0131,0.0092 -0.02885,0.02098 -0.04725,0.03543 -0.02492,0.02885 -0.05248,0.06035 -0.08268,0.0945 -0.01704,0.0092 -0.03673,0.02098 -0.05906,0.03543 -0.05641,0.04066 -0.115472,0.08397 -0.177178,0.129929 -0.05641,0.03279 -0.115469,0.06822 -0.177176,0.106305 l -0.04725,0.04725 c -0.02098,0.0092 -0.0446,0.02098 -0.07087,0.03544 -0.05641,0.03279 -0.115473,0.06822 -0.177176,0.106307 -0.01704,0.0052 -0.03673,0.0131 -0.05906,0.02363 -0.06035,0.03279 -0.123346,0.06822 -0.188989,0.106307 -0.06429,-0.0026 -0.13122,-0.0026 -0.2008,0 -0.02098,0.0052 -0.0446,0.0131 -0.07087,0.02363 -0.0446,0.0013 -0.09185,0.0052 -0.14174,0.0118 -0.0092,0.0013 -0.02098,0.0052 -0.03544,0.0118 -0.0131,-0.0026 -0.02885,-0.0026 -0.04725,0 -0.01704,0.0052 -0.03673,0.0131 -0.05906,0.02363 -0.0131,-0.0026 -0.02885,-0.0026 -0.04725,0 -0.0131,0.0013 -0.02885,0.0052 -0.04725,0.0118 -0.0761,-0.0026 -0.154842,-0.0026 -0.236233,0 -0.0131,-0.0066 -0.02885,-0.01053 -0.04725,-0.0118 -0.0131,-0.0026 -0.02885,-0.0026 -0.04725,0 -0.01704,-0.01053 -0.03673,-0.01839 -0.05906,-0.02363 -0.02492,-0.0066 -0.05248,-0.01053 -0.08268,-0.0118 -0.0013,-0.0066 -0.0052,-0.01053 -0.0118,-0.0118 -0.02098,-0.0066 -0.0446,-0.01053 -0.07087,-0.0118 -0.05248,-0.03808 -0.107598,-0.07352 -0.165365,-0.106304 -0.04854,-0.03414 -0.09972,-0.06564 -0.153553,-0.0945 -0.04854,-0.03021 -0.09972,-0.05777 -0.153554,-0.08268 -0.03279,-0.03414 -0.06822,-0.06564 -0.106304,-0.09449 -0.0092,-0.01053 -0.02098,-0.01839 -0.03544,-0.02363 -0.0131,-0.02627 -0.02885,-0.04989 -0.04725,-0.07087 -0.0052,-0.0066 -0.0131,-0.01053 -0.02363,-0.0118 -0.03279,-0.0499 -0.06822,-0.09714 -0.106304,-0.141743 -0.01036,-0.05682 -0.02215,-0.119687 -0.03544,-0.18899 2.14e-4,-4.51e-4 2.14e-4,-4.51e-4 0,0 0.0026,-0.11289 0.0026,-0.223134 0,-0.330729 0.0026,-0.05777 0.0026,-0.11289 0,-0.165365 -0.0052,-0.01839 -0.0131,-0.03414 -0.02363,-0.04725 0.0026,-0.03414 0.0026,-0.06564 0,-0.09449 -0.0013,-0.0026 -0.0052,-0.0026 -0.0118,0 0.0026,-0.02627 0.0026,-0.04989 0,-0.07087 -0.0092,-0.01053 -0.02098,-0.01839 -0.03544,-0.02363 0.0026,-0.01445 0.0026,-0.02627 0,-0.03544 -0.0013,-0.0026 -0.0052,-0.0026 -0.0118,0 0.0026,-0.01053 0.0026,-0.01839 0,-0.02363 -0.0013,-0.0026 -0.0052,-0.0026 -0.0118,0 0.0026,-0.01445 0.0026,-0.02627 0,-0.03543 -0.0052,-0.01839 -0.0131,-0.03414 -0.02363,-0.04725 0.01053,-0.01839 0.01839,-0.03414 0.02363,-0.04725 z"
       transform="matrix(1.7207286,0,0,0.85791351,-18.280213,83.376356)"
       sodipodi:nodetypes="cccccccccccccccccccccccccccccccccccccccccccccccccccccccccccccccccccccccccccccccccccccccccccccccc" />
    <rect
       style="fill:#ffcc00;fill-rule:evenodd;stroke:none;stroke-width:1.25868356;stroke-opacity:1"
       id="rect1051"
       width="122.82062"
       height="85.420059"
       x="43.583145"
       y="167.95284"
       ry="42.71003"
       transform="matrix(0.99993803,0.01113283,-0.01429737,0.99989779,0,0)" />
    <rect
       style="fill:#ffcc00;fill-rule:evenodd;stroke-width:0.40194011"
       id="rect1053"
       width="23.165295"
       height="51.978008"
       x="62.983093"
       y="240.81024"
       ry="3.1312051" />
    <rect
       style="fill:#ffcc00;fill-rule:evenodd;stroke-width:0.40194011"
       id="rect1053-2"
       width="23.165295"
       height="51.978008"
       x="116.68445"
       y="240.25726"
       ry="3.1312051" />
    <path
       style="fill:none;fill-opacity:1;stroke:none;stroke-width:0.1;stroke-miterlimit:4;stroke-dasharray:none;stroke-opacity:1"
       d="m 119.0625,106.5 c 0,-0.63261 0,-1.26257 0.12758,-1.64002 0.12758,-0.37744 0.37956,-0.50343 0.63128,-0.69295 0.25172,-0.18952 0.5037,-0.4415 1.70081,-0.75543 1.19711,-0.31392 3.33898,-0.6919 5.60686,-1.13293 2.26788,-0.44102 4.66173,-0.94499 6.42541,-1.19666 1.76368,-0.25166 2.89761,-0.25166 3.84255,-0.25166 0.94494,0 1.70089,0 2.58224,0.18926 0.88134,0.18926 1.88928,0.56724 2.51852,0.88195 0.62923,0.31471 0.88122,0.56669 1.19699,0.75595 0.31577,0.18925 0.69375,0.31524 1.19693,0.69295 0.50317,0.37771 1.13314,1.00768 1.82662,1.51191 0.69348,0.50423 1.44943,0.8822 2.20466,1.63759 0.75522,0.75539 1.51116,1.88931 2.14154,2.64573 0.63038,0.75642 1.13434,1.13439 1.63785,1.76376 0.50351,0.62937 1.00748,1.51132 1.4487,2.14171 0.44122,0.63039 0.8192,1.00837 1.07091,1.38555 0.25172,0.37718 0.37772,0.75516 0.69283,1.25976 0.31512,0.50459 0.81908,1.13456 1.57491,2.39416 0.75582,1.2596 1.76376,3.14948 2.39371,4.47208 0.62996,1.32261 0.88194,2.07856 1.13399,2.64601 0.25205,0.56746 0.50403,0.94543 0.63022,1.19639 0.1262,0.25097 0.1262,0.37696 0.19052,0.44128 0.0643,0.0643 0.19031,0.0643 0.25198,0.126 0.0617,0.0617 0.0617,0.18766 0.12599,0.25198 0.0643,0.0643 0.19031,0.0643 0.25199,0.12599 0.0617,0.0617 0.0617,0.18767 0.75477,0.81907 0.6931,0.6314 2.07902,1.76533 3.15113,2.33217 1.07211,0.56685 1.82806,0.56685 4.15908,0.25163 2.33103,-0.31522 6.23679,-0.94518 8.31548,-1.25992 2.0787,-0.31474 2.33068,-0.31474 2.51967,-0.37906 0.18899,-0.0643 0.31498,-0.19031 0.88209,-0.31516 0.5671,-0.12486 1.57505,-0.25085 2.58005,-0.37647"
       id="path1070"
       inkscape:connector-curvature="0"
       inkscape:path-effect="#path-effect1072"
       inkscape:original-d="m 119.0625,106.5 c 0.003,-0.63261 0.003,-1.26257 0,-1.88988 0.25463,-0.12864 0.50661,-0.25463 0.75595,-0.37798 0.25463,-0.25463 0.50662,-0.50661 0.75595,-0.75595 2.14451,-0.38062 4.28638,-0.7586 6.4256,-1.13393 2.39649,-0.50661 4.79034,-1.01058 7.18155,-1.51191 1.13657,-0.003 2.2705,-0.003 3.40178,0 0.7586,-0.003 1.51455,-0.003 2.26786,0 1.01058,0.37533 2.01852,0.75331 3.02381,1.13393 0.25463,0.24934 0.50661,0.50133 0.75595,0.75596 0.38062,0.12334 0.7586,0.24933 1.13393,0.37797 0.63261,0.62732 1.26257,1.25728 1.88988,1.88988 0.7586,0.37533 1.51455,0.75331 2.26786,1.13393 0.7586,1.13129 1.51455,2.26521 2.26785,3.40179 0.50662,0.37533 1.01059,0.7533 1.51191,1.13393 0.50661,0.87929 1.01058,1.76124 1.5119,2.64583 0.38062,0.37533 0.7586,0.75331 1.13393,1.13393 0.12864,0.37533 0.25463,0.75331 0.37798,1.13393 0.50661,0.62731 1.01058,1.25727 1.5119,1.88988 1.01059,1.88723 2.01852,3.77711 3.02381,5.66964 0.25463,0.75331 0.50662,1.50926 0.75596,2.26786 0.25463,0.37533 0.50661,0.7533 0.75595,1.13393 0.003,0.12334 0.003,0.24933 0,0.37797 0.12863,-0.003 0.25463,-0.003 0.37797,0 0.003,0.12335 0.003,0.24934 0,0.37798 0.12864,-0.003 0.25463,-0.003 0.37798,0 0.003,0.12334 0.003,0.24934 0,0.37797 1.38856,1.13129 2.77447,2.26522 4.15774,3.40179 0.7586,-0.003 1.51455,-0.003 2.26786,0 3.90839,-0.6326 7.81415,-1.26257 11.71726,-1.88988 0.25463,-0.003 0.50661,-0.003 0.75595,0 0.12864,-0.12864 0.25463,-0.25463 0.37798,-0.37798 1.01058,-0.12863 2.01852,-0.25463 3.02381,-0.37797"
       transform="translate(8.6934524,70.681548)" />
    <path
       style="fill:none;stroke:#ffcc00;stroke-width:10.37073708;stroke-linecap:round;stroke-linejoin:round;stroke-miterlimit:4;stroke-dasharray:none;stroke-opacity:1"
       d="m 156.69725,199.33842 c 0,0 0.52647,-7.74141 13.95182,-16.03576 l 13.42534,-0.82944 15.89032,-11.59821"
       id="path1074"
       inkscape:connector-curvature="0"
       sodipodi:nodetypes="cccc" />
    <path
       style="fill:#550000;fill-opacity:1;stroke:none;stroke-width:20.0692997;stroke-miterlimit:4;stroke-dasharray:none;stroke-opacity:1"
       id="path1078"
       sodipodi:type="arc"
       sodipodi:cx="65.452805"
       sodipodi:cy="-292.7037"
       sodipodi:rx="2.4702513"
       sodipodi:ry="4.0312395"
       sodipodi:start="0"
       sodipodi:end="3.1625686"
       d="m 67.923056,-292.7037 a 2.4702513,4.0312395 0 0 1 -1.250114,3.50516 2.4702513,4.0312395 0 0 1 -2.485057,-0.0425 2.4702513,4.0312395 0 0 1 -1.204788,-3.54718 l 2.469708,0.0846 z"
       transform="scale(1,-1)" />
    <path
       style="fill:#550000;fill-opacity:1;stroke:none;stroke-width:20.0692997;stroke-miterlimit:4;stroke-dasharray:none;stroke-opacity:1"
       id="path1078-9"
       sodipodi:type="arc"
       sodipodi:cx="74.888298"
       sodipodi:cy="-292.67636"
       sodipodi:rx="2.4702513"
       sodipodi:ry="4.0312395"
       sodipodi:start="0"
       sodipodi:end="3.1625686"
       d="m 77.358549,-292.67636 a 2.4702513,4.0312395 0 0 1 -1.250113,3.50516 2.4702513,4.0312395 0 0 1 -2.485058,-0.0425 2.4702513,4.0312395 0 0 1 -1.204788,-3.54718 l 2.469708,0.0846 z"
       transform="scale(1,-1)" />
    <path
       style="fill:#550000;fill-opacity:1;stroke:none;stroke-width:20.0692997;stroke-miterlimit:4;stroke-dasharray:none;stroke-opacity:1"
       id="path1078-3"
       sodipodi:type="arc"
       sodipodi:cx="79.661674"
       sodipodi:cy="-292.68869"
       sodipodi:rx="2.4702513"
       sodipodi:ry="4.0312395"
       sodipodi:start="0"
       sodipodi:end="3.1625686"
       d="m 82.131926,-292.68869 a 2.4702513,4.0312395 0 0 1 -1.250114,3.50516 2.4702513,4.0312395 0 0 1 -2.485057,-0.0425 2.4702513,4.0312395 0 0 1 -1.204788,-3.54718 l 2.469707,0.0845 z"
       transform="scale(1,-1)" />
    <path
       style="fill:#550000;fill-opacity:1;stroke:none;stroke-width:20.0692997;stroke-miterlimit:4;stroke-dasharray:none;stroke-opacity:1"
       id="path1078-90"
       sodipodi:type="arc"
       sodipodi:cx="84.566208"
       sodipodi:cy="-292.69049"
       sodipodi:rx="2.4702513"
       sodipodi:ry="4.0312395"
       sodipodi:start="0"
       sodipodi:end="3.1625686"
       d="m 87.036459,-292.69049 a 2.4702513,4.0312395 0 0 1 -1.250113,3.50516 2.4702513,4.0312395 0 0 1 -2.485058,-0.0425 2.4702513,4.0312395 0 0 1 -1.204788,-3.54718 l 2.469708,0.0845 z"
       transform="scale(1,-1)" />
    <path
       style="fill:#550000;fill-opacity:1;stroke:none;stroke-width:20.0692997;stroke-miterlimit:4;stroke-dasharray:none;stroke-opacity:1"
       id="path1078-8"
       sodipodi:type="arc"
       sodipodi:cx="70.096428"
       sodipodi:cy="-292.62939"
       sodipodi:rx="2.4702513"
       sodipodi:ry="4.0312395"
       sodipodi:start="0"
       sodipodi:end="3.1625686"
       d="m 72.566679,-292.62939 a 2.4702513,4.0312395 0 0 1 -1.250113,3.50516 2.4702513,4.0312395 0 0 1 -2.485058,-0.0425 2.4702513,4.0312395 0 0 1 -1.204788,-3.54718 l 2.469708,0.0846 z"
       transform="scale(1,-1)" />
    <path
       style="fill:#550000;fill-opacity:1;stroke:none;stroke-width:20.0692997;stroke-miterlimit:4;stroke-dasharray:none;stroke-opacity:1"
       id="path1078-85"
       sodipodi:type="arc"
       sodipodi:cx="119.15417"
       sodipodi:cy="-292.15073"
       sodipodi:rx="2.4702513"
       sodipodi:ry="4.0312395"
       sodipodi:start="0"
       sodipodi:end="3.1625686"
       d="m 121.62442,-292.15073 a 2.4702513,4.0312395 0 0 1 -1.25012,3.50517 2.4702513,4.0312395 0 0 1 -2.48505,-0.0425 2.4702513,4.0312395 0 0 1 -1.20479,-3.54718 l 2.46971,0.0845 z"
       transform="scale(1,-1)" />
    <path
       style="fill:#550000;fill-opacity:1;stroke:none;stroke-width:20.0692997;stroke-miterlimit:4;stroke-dasharray:none;stroke-opacity:1"
       id="path1078-9-6"
       sodipodi:type="arc"
       sodipodi:cx="128.58966"
       sodipodi:cy="-292.12338"
       sodipodi:rx="2.4702513"
       sodipodi:ry="4.0312395"
       sodipodi:start="0"
       sodipodi:end="3.1625686"
       d="m 131.05991,-292.12338 a 2.4702513,4.0312395 0 0 1 -1.25011,3.50516 2.4702513,4.0312395 0 0 1 -2.48506,-0.0425 2.4702513,4.0312395 0 0 1 -1.20479,-3.54719 l 2.46971,0.0846 z"
       transform="scale(1,-1)" />
    <path
       style="fill:#550000;fill-opacity:1;stroke:none;stroke-width:20.0692997;stroke-miterlimit:4;stroke-dasharray:none;stroke-opacity:1"
       id="path1078-3-1"
       sodipodi:type="arc"
       sodipodi:cx="133.36305"
       sodipodi:cy="-292.13571"
       sodipodi:rx="2.4702513"
       sodipodi:ry="4.0312395"
       sodipodi:start="0"
       sodipodi:end="3.1625686"
       d="m 135.8333,-292.13571 a 2.4702513,4.0312395 0 0 1 -1.25011,3.50516 2.4702513,4.0312395 0 0 1 -2.48506,-0.0425 2.4702513,4.0312395 0 0 1 -1.20479,-3.54718 l 2.46971,0.0845 z"
       transform="scale(1,-1)" />
    <path
       style="fill:#550000;fill-opacity:1;stroke:none;stroke-width:20.0692997;stroke-miterlimit:4;stroke-dasharray:none;stroke-opacity:1"
       id="path1078-90-1"
       sodipodi:type="arc"
       sodipodi:cx="138.26759"
       sodipodi:cy="-292.13751"
       sodipodi:rx="2.4702513"
       sodipodi:ry="4.0312395"
       sodipodi:start="0"
       sodipodi:end="3.1625686"
       d="m 140.73784,-292.13751 a 2.4702513,4.0312395 0 0 1 -1.25011,3.50516 2.4702513,4.0312395 0 0 1 -2.48506,-0.0425 2.4702513,4.0312395 0 0 1 -1.20478,-3.54719 l 2.4697,0.0846 z"
       transform="scale(1,-1)" />
    <path
       style="fill:#550000;fill-opacity:1;stroke:none;stroke-width:20.0692997;stroke-miterlimit:4;stroke-dasharray:none;stroke-opacity:1"
       id="path1078-8-5"
       sodipodi:type="arc"
       sodipodi:cx="123.79779"
       sodipodi:cy="-292.07642"
       sodipodi:rx="2.4702513"
       sodipodi:ry="4.0312395"
       sodipodi:start="0"
       sodipodi:end="3.1625686"
       d="m 126.26804,-292.07642 a 2.4702513,4.0312395 0 0 1 -1.25011,3.50517 2.4702513,4.0312395 0 0 1 -2.48506,-0.0425 2.4702513,4.0312395 0 0 1 -1.20479,-3.54718 l 2.46971,0.0846 z"
       transform="scale(1,-1)" />
  </g>
</svg>
