<?xml version="1.0" encoding="UTF-8" standalone="no"?>
<!-- Created with Inkscape (http://www.inkscape.org/) -->

<svg
   xmlns:dc="http://purl.org/dc/elements/1.1/"
   xmlns:cc="http://creativecommons.org/ns#"
   xmlns:rdf="http://www.w3.org/1999/02/22-rdf-syntax-ns#"
   xmlns:svg="http://www.w3.org/2000/svg"
   xmlns="http://www.w3.org/2000/svg"
   xmlns:sodipodi="http://sodipodi.sourceforge.net/DTD/sodipodi-0.dtd"
   xmlns:inkscape="http://www.inkscape.org/namespaces/inkscape"
   width="210mm"
   height="297mm"
   viewBox="0 0 744.09448819 1052.3622047"
   id="svg2"
   version="1.1"
   inkscape:version="0.91 r13725"
   sodipodi:docname="medals.svg">
  <defs
     id="defs4">
    <inkscape:path-effect
       effect="spiro"
       id="path-effect4167"
       is_visible="true" />
  </defs>
  <sodipodi:namedview
     id="base"
     pagecolor="#ffffff"
     bordercolor="#666666"
     borderopacity="1.0"
     inkscape:pageopacity="0.0"
     inkscape:pageshadow="2"
     inkscape:zoom="0.98994949"
     inkscape:cx="209.73289"
     inkscape:cy="746.57371"
     inkscape:document-units="px"
     inkscape:current-layer="layer1"
     showgrid="true"
     inkscape:window-width="1920"
     inkscape:window-height="971"
     inkscape:window-x="0"
     inkscape:window-y="31"
     inkscape:window-maximized="1">
    <inkscape:grid
       type="xygrid"
       id="grid4136" />
  </sodipodi:namedview>
  <metadata
     id="metadata7">
    <rdf:RDF>
      <cc:Work
         rdf:about="">
        <dc:format>image/svg+xml</dc:format>
        <dc:type
           rdf:resource="http://purl.org/dc/dcmitype/StillImage" />
        <dc:title />
      </cc:Work>
    </rdf:RDF>
  </metadata>
  <g
     inkscape:label="Layer 1"
     inkscape:groupmode="layer"
     id="layer1">
    <ellipse
       style="fill:#ebeb00;fill-opacity:1;fill-rule:evenodd;stroke:#000000;stroke-width:2.26759362px;stroke-linecap:butt;stroke-linejoin:miter;stroke-opacity:1"
       id="path4138"
       cx="459.65805"
       cy="285.90799"
       rx="280.54074"
       ry="274.93228" />
    <ellipse
       style="fill:#28170b;fill-rule:evenodd;stroke:#000000;stroke-width:2.26759362px;stroke-linecap:butt;stroke-linejoin:miter;stroke-opacity:1"
       id="path4140"
       cx="352.09372"
       cy="184.82225"
       rx="35.067593"
       ry="54.986458" />
    <ellipse
       style="fill:#28170b;fill-rule:evenodd;stroke:#000000;stroke-width:2.26759362px;stroke-linecap:butt;stroke-linejoin:miter;stroke-opacity:1"
       id="path4140-3"
       cx="560.375"
       cy="186.82074"
       rx="35.067593"
       ry="54.986458" />
    <path
       style="fill:#280b0b;fill-rule:evenodd;stroke:#000000;stroke-width:2.07937336px;stroke-linecap:butt;stroke-linejoin:miter;stroke-opacity:1"
       d="M 632.63951,369.24179 A 225.13913,149.32524 0 0 1 451.09362,430.52744 225.13913,149.32524 0 0 1 281.24229,378.93767 176.16037,81.610933 0 0 0 457.1781,457.6066 176.16037,81.610933 0 0 0 633.3385,375.99568 176.16037,81.610933 0 0 0 632.63951,369.24179 Z"
       id="path4169"
       inkscape:connector-curvature="0" />
    <ellipse
       style="fill:#f0f000;fill-opacity:1;fill-rule:evenodd;stroke:#000000;stroke-width:2.26759362px;stroke-linecap:butt;stroke-linejoin:miter;stroke-opacity:1"
       id="path4138-6"
       cx="423.52237"
       cy="301.90701"
       rx="280.54074"
       ry="274.93228"
       inkscape:transform-center-x="-66.124063"
       inkscape:transform-center-y="-75.540821" />
    <ellipse
       style="fill:#28170b;fill-rule:evenodd;stroke:#000000;stroke-width:2.26759362px;stroke-linecap:butt;stroke-linejoin:miter;stroke-opacity:1"
       id="path4140-7"
       cx="318.31961"
       cy="200.82127"
       rx="35.067593"
       ry="54.986458"
       inkscape:transform-center-x="39.078695"
       inkscape:transform-center-y="-185.51371" />
    <ellipse
       style="fill:#28170b;fill-rule:evenodd;stroke:#000000;stroke-width:2.26759362px;stroke-linecap:butt;stroke-linejoin:miter;stroke-opacity:1"
       id="path4140-3-5"
       cx="526.60089"
       cy="202.81978"
       rx="35.067593"
       ry="54.986458"
       inkscape:transform-center-x="-169.20262"
       inkscape:transform-center-y="-183.51521" />
    <path
       style="fill:#280b0b;fill-rule:evenodd;stroke:#000000;stroke-width:2.07937336px;stroke-linecap:butt;stroke-linejoin:miter;stroke-opacity:1"
       d="M 598.86542,385.24083 A 225.13913,149.32524 0 0 1 417.31952,446.52648 225.13913,149.32524 0 0 1 247.4682,394.9367 176.16037,81.610933 0 0 0 423.404,473.60563 176.16037,81.610933 0 0 0 599.56441,391.9947 a 176.16037,81.610933 0 0 0 -0.69899,-6.75387 z"
       id="path4169-3"
       inkscape:connector-curvature="0"
       inkscape:transform-center-x="-66.118001"
       inkscape:transform-center-y="43.088257" />
    <ellipse
       style="fill:#f5f500;fill-opacity:1;fill-rule:evenodd;stroke:#000000;stroke-width:2.26759362px;stroke-linecap:butt;stroke-linejoin:miter;stroke-opacity:1"
       id="path4138-5"
       cx="388.57349"
       cy="318.78815"
       rx="280.54074"
       ry="274.93228" />
    <ellipse
       style="fill:#28170b;fill-rule:evenodd;stroke:#000000;stroke-width:2.26759362px;stroke-linecap:butt;stroke-linejoin:miter;stroke-opacity:1"
       id="path4140-6"
       cx="283.3707"
       cy="233.2549"
       rx="35.067593"
       ry="54.986458" />
    <ellipse
       style="fill:#28170b;fill-rule:evenodd;stroke:#000000;stroke-width:2.26759362px;stroke-linecap:butt;stroke-linejoin:miter;stroke-opacity:1"
       id="path4140-3-2"
       cx="491.65204"
       cy="235.2534"
       rx="35.067593"
       ry="54.986458" />
    <path
       style="fill:#280b0b;fill-rule:evenodd;stroke:#000000;stroke-width:2.07937336px;stroke-linecap:butt;stroke-linejoin:miter;stroke-opacity:1"
       d="M 563.91649,417.67447 A 225.13913,149.32524 0 0 1 382.3706,478.9601 225.13913,149.32524 0 0 1 212.51928,427.37034 a 176.16037,81.610933 0 0 0 175.93581,78.66892 176.16037,81.610933 0 0 0 176.1604,-81.61092 176.16037,81.610933 0 0 0 -0.699,-6.75387 z"
       id="path4169-9"
       inkscape:connector-curvature="0" />
    <ellipse
       style="fill:#fafa00;fill-opacity:1;fill-rule:evenodd;stroke:#000000;stroke-width:2.26759362px;stroke-linecap:butt;stroke-linejoin:miter;stroke-opacity:1"
       id="path4138-1"
       cx="344.89032"
       cy="337.00909"
       rx="280.54074"
       ry="274.93228" />
    <ellipse
       style="fill:#28170b;fill-rule:evenodd;stroke:#000000;stroke-width:2.26759362px;stroke-linecap:butt;stroke-linejoin:miter;stroke-opacity:1"
       id="path4140-2"
       cx="239.68752"
       cy="267.02835"
       rx="35.067593"
       ry="54.986458" />
    <ellipse
       style="fill:#28170b;fill-rule:evenodd;stroke:#000000;stroke-width:2.26759362px;stroke-linecap:butt;stroke-linejoin:miter;stroke-opacity:1"
       id="path4140-3-7"
       cx="447.96887"
       cy="269.02682"
       rx="35.067593"
       ry="54.986458" />
    <path
       style="fill:#280b0b;fill-rule:evenodd;stroke:#000000;stroke-width:2.07937336px;stroke-linecap:butt;stroke-linejoin:miter;stroke-opacity:1"
       d="m 520.23333,451.44789 a 225.13913,149.32524 0 0 1 -181.5459,61.28564 225.13913,149.32524 0 0 1 -169.85132,-51.58976 176.16037,81.610933 0 0 0 175.93581,78.66892 176.16037,81.610933 0 0 0 176.1604,-81.61092 176.16037,81.610933 0 0 0 -0.69899,-6.75388 z"
       id="path4169-0"
       inkscape:connector-curvature="0" />
    <ellipse
       style="fill:#ffff00;fill-rule:evenodd;stroke:#000000;stroke-width:2.26759362px;stroke-linecap:butt;stroke-linejoin:miter;stroke-opacity:1"
       id="path4138-9"
       cx="308.04257"
       cy="356.10071"
       rx="280.54074"
       ry="274.93228" />
    <ellipse
       style="fill:#28170b;fill-rule:evenodd;stroke:#000000;stroke-width:2.26759362px;stroke-linecap:butt;stroke-linejoin:miter;stroke-opacity:1"
       id="path4140-36"
       cx="202.83977"
       cy="246.12778"
       rx="35.067593"
       ry="54.986458" />
    <ellipse
       style="fill:#28170b;fill-rule:evenodd;stroke:#000000;stroke-width:2.26759362px;stroke-linecap:butt;stroke-linejoin:miter;stroke-opacity:1"
       id="path4140-3-0"
       cx="411.12112"
       cy="248.12627"
       rx="35.067593"
       ry="54.986458" />
    <path
       style="fill:#280b0b;fill-rule:evenodd;stroke:#000000;stroke-width:2.07937336px;stroke-linecap:butt;stroke-linejoin:miter;stroke-opacity:1"
       d="m 483.38561,430.54739 a 225.13913,149.32524 0 0 1 -181.54589,61.28563 225.13913,149.32524 0 0 1 -169.85134,-51.58976 176.16037,81.610933 0 0 0 175.93582,78.66893 176.16037,81.610933 0 0 0 176.1604,-81.61093 176.16037,81.610933 0 0 0 -0.69899,-6.75387 z"
       id="path4169-6"
       inkscape:connector-curvature="0" />
  </g>
</svg>
