<?xml version="1.0" encoding="UTF-8" standalone="no"?>
<!-- Created with Inkscape (http://www.inkscape.org/) -->

<svg
   xmlns:dc="http://purl.org/dc/elements/1.1/"
   xmlns:cc="http://creativecommons.org/ns#"
   xmlns:rdf="http://www.w3.org/1999/02/22-rdf-syntax-ns#"
   xmlns:svg="http://www.w3.org/2000/svg"
   xmlns="http://www.w3.org/2000/svg"
   xmlns:sodipodi="http://sodipodi.sourceforge.net/DTD/sodipodi-0.dtd"
   xmlns:inkscape="http://www.inkscape.org/namespaces/inkscape"
   width="210mm"
   height="210mm"
   viewBox="0 0 744.09449 744.09448"
   id="svg2"
   version="1.1"
   inkscape:version="0.91 r13725"
   sodipodi:docname="medals.svg">
  <defs
     id="defs4">
    <inkscape:path-effect
       effect="spiro"
       id="path-effect4167"
       is_visible="true" />
  </defs>
  <sodipodi:namedview
     id="base"
     pagecolor="#ffffff"
     bordercolor="#666666"
     borderopacity="1.0"
     inkscape:pageopacity="0.0"
     inkscape:pageshadow="2"
     inkscape:zoom="0.49497475"
     inkscape:cx="33.46127"
     inkscape:cy="744.5534"
     inkscape:document-units="px"
     inkscape:current-layer="layer1"
     showgrid="true"
     inkscape:window-width="1920"
     inkscape:window-height="971"
     inkscape:window-x="0"
     inkscape:window-y="31"
     inkscape:window-maximized="1">
    <inkscape:grid
       type="xygrid"
       id="grid4136" />
  </sodipodi:namedview>
  <metadata
     id="metadata7">
    <rdf:RDF>
      <cc:Work
         rdf:about="">
        <dc:format>image/svg+xml</dc:format>
        <dc:type
           rdf:resource="http://purl.org/dc/dcmitype/StillImage" />
        <dc:title></dc:title>
      </cc:Work>
    </rdf:RDF>
  </metadata>
  <g
     inkscape:label="Layer 1"
     inkscape:groupmode="layer"
     id="layer1"
     transform="translate(0,-308.26772)">
    <ellipse
       style="fill:#ebeb00;fill-opacity:1;fill-rule:evenodd;stroke:#000000;stroke-width:2.26759362px;stroke-linecap:butt;stroke-linejoin:miter;stroke-opacity:1"
       id="path4138"
       cx="443.49561"
       cy="599.0553"
       rx="280.54074"
       ry="274.93228" />
    <ellipse
       style="fill:#28170b;fill-rule:evenodd;stroke:#000000;stroke-width:2.26759362px;stroke-linecap:butt;stroke-linejoin:miter;stroke-opacity:1"
       id="path4140"
       cx="335.93127"
       cy="497.96954"
       rx="35.067593"
       ry="54.986458" />
    <ellipse
       style="fill:#28170b;fill-rule:evenodd;stroke:#000000;stroke-width:2.26759362px;stroke-linecap:butt;stroke-linejoin:miter;stroke-opacity:1"
       id="path4140-3"
       cx="544.21259"
       cy="499.96802"
       rx="35.067593"
       ry="54.986458" />
    <path
       style="fill:#280b0b;fill-rule:evenodd;stroke:#000000;stroke-width:2.07937336px;stroke-linecap:butt;stroke-linejoin:miter;stroke-opacity:1"
       d="m 616.47707,682.38908 a 225.13913,149.32524 0 0 1 -181.54589,61.28565 225.13913,149.32524 0 0 1 -169.85133,-51.58977 176.16037,81.610933 0 0 0 175.93581,78.66893 176.16037,81.610933 0 0 0 176.1604,-81.61092 176.16037,81.610933 0 0 0 -0.69899,-6.75389 z"
       id="path4169"
       inkscape:connector-curvature="0" />
    <ellipse
       style="fill:#f0f000;fill-opacity:1;fill-rule:evenodd;stroke:#000000;stroke-width:2.26759362px;stroke-linecap:butt;stroke-linejoin:miter;stroke-opacity:1"
       id="path4138-6"
       cx="407.35992"
       cy="615.05432"
       rx="280.54074"
       ry="274.93228"
       inkscape:transform-center-x="-66.124063"
       inkscape:transform-center-y="-75.540821" />
    <ellipse
       style="fill:#28170b;fill-rule:evenodd;stroke:#000000;stroke-width:2.26759362px;stroke-linecap:butt;stroke-linejoin:miter;stroke-opacity:1"
       id="path4140-7"
       cx="302.15717"
       cy="513.96857"
       rx="35.067593"
       ry="54.986458"
       inkscape:transform-center-x="39.078695"
       inkscape:transform-center-y="-185.51371" />
    <ellipse
       style="fill:#28170b;fill-rule:evenodd;stroke:#000000;stroke-width:2.26759362px;stroke-linecap:butt;stroke-linejoin:miter;stroke-opacity:1"
       id="path4140-3-5"
       cx="510.43845"
       cy="515.96704"
       rx="35.067593"
       ry="54.986458"
       inkscape:transform-center-x="-169.20262"
       inkscape:transform-center-y="-183.51521" />
    <path
       style="fill:#280b0b;fill-rule:evenodd;stroke:#000000;stroke-width:2.07937336px;stroke-linecap:butt;stroke-linejoin:miter;stroke-opacity:1"
       d="m 582.70298,698.38812 a 225.13913,149.32524 0 0 1 -181.5459,61.28565 225.13913,149.32524 0 0 1 -169.85132,-51.58978 176.16037,81.610933 0 0 0 175.9358,78.66893 176.16037,81.610933 0 0 0 176.16041,-81.61093 176.16037,81.610933 0 0 0 -0.69899,-6.75387 z"
       id="path4169-3"
       inkscape:connector-curvature="0"
       inkscape:transform-center-x="-66.118001"
       inkscape:transform-center-y="43.088257" />
    <ellipse
       style="fill:#f5f500;fill-opacity:1;fill-rule:evenodd;stroke:#000000;stroke-width:2.26759362px;stroke-linecap:butt;stroke-linejoin:miter;stroke-opacity:1"
       id="path4138-5"
       cx="372.41104"
       cy="631.93542"
       rx="280.54074"
       ry="274.93228" />
    <ellipse
       style="fill:#28170b;fill-rule:evenodd;stroke:#000000;stroke-width:2.26759362px;stroke-linecap:butt;stroke-linejoin:miter;stroke-opacity:1"
       id="path4140-6"
       cx="267.20825"
       cy="546.40216"
       rx="35.067593"
       ry="54.986458" />
    <ellipse
       style="fill:#28170b;fill-rule:evenodd;stroke:#000000;stroke-width:2.26759362px;stroke-linecap:butt;stroke-linejoin:miter;stroke-opacity:1"
       id="path4140-3-2"
       cx="475.48959"
       cy="548.4007"
       rx="35.067593"
       ry="54.986458" />
    <path
       style="fill:#280b0b;fill-rule:evenodd;stroke:#000000;stroke-width:2.07937336px;stroke-linecap:butt;stroke-linejoin:miter;stroke-opacity:1"
       d="m 547.75405,730.82176 a 225.13913,149.32524 0 0 1 -181.54589,61.28563 225.13913,149.32524 0 0 1 -169.85132,-51.58976 176.16037,81.610933 0 0 0 175.93581,78.66892 176.16037,81.610933 0 0 0 176.1604,-81.61092 176.16037,81.610933 0 0 0 -0.699,-6.75387 z"
       id="path4169-9"
       inkscape:connector-curvature="0" />
    <ellipse
       style="fill:#fafa00;fill-opacity:1;fill-rule:evenodd;stroke:#000000;stroke-width:2.26759362px;stroke-linecap:butt;stroke-linejoin:miter;stroke-opacity:1"
       id="path4138-1"
       cx="328.72787"
       cy="650.15637"
       rx="280.54074"
       ry="274.93228" />
    <ellipse
       style="fill:#28170b;fill-rule:evenodd;stroke:#000000;stroke-width:2.26759362px;stroke-linecap:butt;stroke-linejoin:miter;stroke-opacity:1"
       id="path4140-2"
       cx="223.52507"
       cy="580.17566"
       rx="35.067593"
       ry="54.986458" />
    <ellipse
       style="fill:#28170b;fill-rule:evenodd;stroke:#000000;stroke-width:2.26759362px;stroke-linecap:butt;stroke-linejoin:miter;stroke-opacity:1"
       id="path4140-3-7"
       cx="431.80643"
       cy="582.17413"
       rx="35.067593"
       ry="54.986458" />
    <path
       style="fill:#280b0b;fill-rule:evenodd;stroke:#000000;stroke-width:2.07937336px;stroke-linecap:butt;stroke-linejoin:miter;stroke-opacity:1"
       d="m 504.07089,764.59518 a 225.13913,149.32524 0 0 1 -181.5459,61.28564 225.13913,149.32524 0 0 1 -169.85132,-51.58976 176.16037,81.610933 0 0 0 175.93581,78.66892 176.16037,81.610933 0 0 0 176.1604,-81.61092 176.16037,81.610933 0 0 0 -0.69899,-6.75388 z"
       id="path4169-0"
       inkscape:connector-curvature="0" />
    <ellipse
       style="fill:#ffff00;fill-rule:evenodd;stroke:#000000;stroke-width:2.26759362px;stroke-linecap:butt;stroke-linejoin:miter;stroke-opacity:1"
       id="path4138-9"
       cx="291.88013"
       cy="669.24799"
       rx="280.54074"
       ry="274.93228" />
    <ellipse
       style="fill:#28170b;fill-rule:evenodd;stroke:#000000;stroke-width:2.26759362px;stroke-linecap:butt;stroke-linejoin:miter;stroke-opacity:1"
       id="path4140-36"
       cx="186.67732"
       cy="559.27509"
       rx="35.067593"
       ry="54.986458" />
    <ellipse
       style="fill:#28170b;fill-rule:evenodd;stroke:#000000;stroke-width:2.26759362px;stroke-linecap:butt;stroke-linejoin:miter;stroke-opacity:1"
       id="path4140-3-0"
       cx="394.95868"
       cy="561.27356"
       rx="35.067593"
       ry="54.986458" />
    <path
       style="fill:#280b0b;fill-rule:evenodd;stroke:#000000;stroke-width:2.07937336px;stroke-linecap:butt;stroke-linejoin:miter;stroke-opacity:1"
       d="m 467.22317,743.69468 a 225.13913,149.32524 0 0 1 -181.54589,61.28563 225.13913,149.32524 0 0 1 -169.85134,-51.58976 176.16037,81.610933 0 0 0 175.93582,78.66893 176.16037,81.610933 0 0 0 176.1604,-81.61093 176.16037,81.610933 0 0 0 -0.69899,-6.75387 z"
       id="path4169-6"
       inkscape:connector-curvature="0" />
  </g>
</svg>
